<?xml version="1.0" encoding="UTF-8" standalone="no"?>
<!-- Generator: Adobe Illustrator 13.0.1, SVG Export Plug-In . SVG Version: 6.00 Build 14948)  -->

<svg
   version="1.0"
   id="Warstwa_1"
   x="0px"
   y="0px"
   width="198.424"
   height="198.424"
   viewBox="0 0 198.42399 198.424"
   enable-background="new 0 0 255.117 255.118"
   xml:space="preserve"
   sodipodi:docname="Kampinoski_okragle_podstawowe2.svg"
   inkscape:version="1.3 (0e150ed6c4, 2023-07-21)"
   xmlns:inkscape="http://www.inkscape.org/namespaces/inkscape"
   xmlns:sodipodi="http://sodipodi.sourceforge.net/DTD/sodipodi-0.dtd"
   xmlns="http://www.w3.org/2000/svg"
   xmlns:svg="http://www.w3.org/2000/svg"><defs
   id="defs28" /><sodipodi:namedview
   id="namedview28"
   pagecolor="#ffffff"
   bordercolor="#666666"
   borderopacity="1.0"
   inkscape:showpageshadow="2"
   inkscape:pageopacity="0.0"
   inkscape:pagecheckerboard="0"
   inkscape:deskcolor="#d1d1d1"
   inkscape:zoom="3.3513904"
   inkscape:cx="99.361746"
   inkscape:cy="99.212554"
   inkscape:window-width="1920"
   inkscape:window-height="1051"
   inkscape:window-x="-9"
   inkscape:window-y="-9"
   inkscape:window-maximized="1"
   inkscape:current-layer="Warstwa_1" />&#10;<g
   id="g28"
   transform="translate(-28.027,-28.348)">&#10;	<circle
   fill="#d1d3d4"
   cx="127.239"
   cy="127.56"
   r="99.211998"
   id="circle1" />&#10;	<g
   id="g5">&#10;		<path
   fill="#87ac48"
   d="m 195.592,127.562 c 0,37.57 -30.46,68.029 -68.034,68.029 -37.57,0 -68.029,-30.459 -68.029,-68.029 0,-37.571 30.459,-68.033 68.029,-68.033 37.574,-0.001 68.034,30.461 68.034,68.033"
   id="path1" />&#10;		<path
   fill="none"
   d="m 76.384,133.456 c 0,0 -0.402,-0.422 -0.094,-1.258 0,0 0.078,-0.525 -1.16,0.382 0,0 -0.258,0.169 -0.939,0.765 0,0 -1.053,0.643 -0.133,1.219 1.188,0.742 -0.654,-0.86 1.877,-0.398 1.654,0.3 0.449,-0.71 0.449,-0.71 z"
   id="path2" />&#10;		<circle
   fill="none"
   cx="85.473999"
   cy="117.457"
   r="1.38"
   id="circle2" />&#10;		<path
   fill="none"
   d="m 165.11,146.816 c -4.295,-1.81 -2.535,1.771 -2.535,1.771 0,0 0.281,1.51 1.482,5.271 1.201,3.763 2.068,1.809 2.068,1.809 0.099,-0.504 0.034,-8.409 -1.015,-8.851 z"
   id="path3" />&#10;		<path
   fill="#3e3123"
   d="m 77.835,117.716 c 2.023,-2.044 7.566,-6.795 7.566,-6.795 2.547,4.481 5.973,1.046 5.973,1.046 3.277,-3.601 5.92,-3.496 5.92,-3.496 2.279,-0.007 5.465,-1.229 8.643,-1.983 3.18,-0.755 5.014,-4.624 6.822,-7.128 1.805,-2.506 1.244,-4.857 1.244,-4.857 -2.322,-3.593 -4.053,-0.409 -4.053,-0.409 -1.359,3.863 -2.121,4.047 -2.121,4.047 -3.938,1.524 -2.846,-3.516 -2.846,-3.516 0.801,-4.352 -2.908,-4.042 -2.908,-4.042 -2.504,0.426 -2.164,5.83 -2.164,5.83 -0.018,1.478 -1.131,3.382 -1.131,3.382 -0.85,1.906 -2.699,-0.263 -3.445,-1.172 -0.746,-0.91 -2.891,-5.159 -2.891,-5.159 -1.27,-2.988 -2.926,-2.048 -2.926,-2.048 -1.721,1.019 -0.641,2.746 -0.641,2.746 2.396,4.212 2.543,8.424 2.543,8.424 -1.246,8.227 -4.084,5.186 -4.084,5.186 -2.264,-2.998 -5.598,-3.718 -5.598,-3.718 -2.754,-0.653 -6.682,-6.717 -6.682,-6.717 0,0 -1.52,-2.07 -2.533,0.748 0,0 -0.559,1.098 1.225,3.507 1.783,2.408 1.957,2.462 1.957,2.462 2.211,2.771 4.664,3.597 5.064,4.862 0.398,1.267 -1.082,0.462 -4.941,-2.624 -3.859,-3.087 -3.473,0.622 -3.473,0.622 l 1.334,2.965 c 0,0 1.65,2.419 0.133,2.125 -1.518,-0.296 -6.023,-3.858 -6.023,-3.858 -2.574,-0.906 -2.316,2.159 -2.316,2.159 2.621,8.256 12.352,7.411 12.352,7.411 z m 103.519,26.713 c -0.939,-1.001 -1.428,-0.351 -2.875,-1.797 -1.445,-1.444 -2.454,-4.882 -4.993,-5.608 0,0 5.616,-3.642 6.513,-7.319 0.637,-2.609 -1.104,-5.279 -1.104,-5.279 -6.624,-13.72 -26.071,-8.899 -26.071,-8.899 0,0 -12.004,4.316 -19.1,0.838 -7.096,-3.479 -12.125,-4.109 -12.125,-4.109 -7.727,-1.607 -21.686,4.381 -21.686,4.381 1.74,-0.8 3.682,-2.926 3.682,-2.926 0,0 4.748,-6.378 -1.076,-5.501 -7.426,1.119 -8.656,3.452 -9.463,5.499 -0.805,2.047 -4.064,2.006 -4.064,2.006 0,0 -0.734,-2.21 -2.932,-1.952 -2.195,0.258 -4.441,2.333 -6.73,5.984 -2.289,3.651 -8.295,7.401 -8.295,7.401 0,0 -4.074,3.932 0.637,7.51 0,0 0.086,2.917 1.055,2.917 0.969,0 3.09,-1.168 3.09,-1.168 0,0 2.795,2.836 4.166,-1.851 l 0.771,-1.389 c 0,0 1.297,0.125 1.697,-1.234 0,0 1.85,0.657 2.16,0.926 0.31,0.269 2.469,-0.155 2.469,-0.155 0,0 3.047,3.78 3.086,8.332 0,0 -0.143,1.866 1.334,-0.182 0,0 1.127,-1.926 1.346,0.009 0.221,1.936 0.463,3.861 1.795,3.104 1.332,-0.758 1.061,-4.542 1.061,-4.542 0,0 0.066,-4.977 1.254,-4.255 1.188,0.721 7.531,4.155 8.932,7.483 0,0 0.805,2.118 -1.846,7.086 0,0 -1.246,1.9 -1.51,5.048 0,0 -0.283,2.639 -2.051,6.501 -1.768,3.861 -3.371,7.364 -3.371,7.364 0,0 -1.139,2.535 0.602,2.932 1.738,0.396 2.268,-2.047 2.268,-2.047 0,0 1.662,-4.217 2.986,-7.015 0,0 1.525,-4.989 2.781,-4.358 0,0 1.004,0.387 0.156,3.236 -0.846,2.852 -2.314,6.48 -2.314,6.48 0,0 -2.443,3.152 -1.871,3.746 0.572,0.596 2.537,1.105 3.756,-3.707 0,0 2.318,-5.23 3.508,-6.837 1.19,-1.607 2.32,-5.733 4.418,-7.259 2.1,-1.524 1.813,-2.294 1.813,-2.294 0,0 -5.688,-3.39 -6.068,-4.479 0,0 -0.645,-2.113 1.775,-0.65 0,0 1.508,1.311 1.971,1.992 0,0 2.412,2.756 5.041,2.264 2.631,-0.491 3.178,-0.864 2.08,-2.679 -1.096,-1.815 -1.826,-2.36 -1.002,-3.472 0,0 1.279,-1.531 2.076,1.437 0,0 1.125,3.143 1.945,5.121 0.709,1.71 0.795,2.838 0.795,2.838 0,0 0.592,1.86 1.236,2.96 0,0 0.844,2.004 0.979,3.437 0.135,1.432 1.617,3.97 1.617,3.97 0,0 1.383,3.15 1.391,3.924 0,0 0.221,1.051 0.953,1.957 0.73,0.908 0.59,2.363 0.59,2.363 0,0 -0.045,0.877 1.203,1.119 1.248,0.242 0.496,-2.352 0.496,-2.352 0,0 -1.229,-2.563 -1.262,-3.045 -0.033,-0.481 -0.775,-2.39 -1.133,-4.388 -0.358,-1.998 -0.703,-3.754 -0.848,-4.854 -0.145,-1.1 0.264,-2.361 -0.303,-4.438 -0.566,-2.079 0.244,-1.285 0.244,-1.285 0,0 1.684,3.128 2.031,4.524 0.35,1.396 1.215,3.572 1.295,3.824 0.08,0.252 0.852,3.437 1.053,3.795 0.203,0.358 0.238,2.6 0.154,2.778 -0.084,0.18 0.01,1.24 0.844,2.822 0.834,1.584 0.531,3.875 0.531,3.875 0,0 -0.139,1.041 1.975,1.01 1.453,-0.021 1.045,-3 1.045,-3 0,0 -0.297,-3.344 -0.309,-3.607 -0.014,-0.262 0.133,-2.242 -0.564,-4.036 -0.699,-1.795 -0.975,-6.529 -0.975,-6.529 0,0 0.012,-4.4 -2.801,-8.333 0,0 -2.188,-3.915 -2.125,-5.627 0,0 0.061,-2.152 0.678,-2.459 0,0 0.881,-0.638 1.084,1.967 0.203,2.605 1.318,3.254 2.033,3.489 0,0 6.51,1.688 10.1,1.12 0,0 4.535,-0.563 6.359,-1.979 0,0 1.273,-1.431 2.467,-1.661 1.191,-0.229 1.824,-2.702 1.824,-2.702 0,0 0.771,-5.841 0.207,-7.215 0,0 -0.104,-0.944 0.492,0.509 0.594,1.453 0.254,4.918 0.254,4.918 0,0 -0.002,4.219 1.721,6.254 1.723,2.036 2.625,6.221 2.625,6.221 0,0 0.234,8.878 0.311,10.337 0.076,1.46 -1.346,6.767 -1.594,7.714 -0.246,0.945 0.787,1.426 1.584,1.172 0.797,-0.256 2.975,-4.555 2.975,-4.555 0,0 1.254,-3.895 1.047,-5.314 0,0 -0.146,-4.17 1.078,-0.253 0,0 0.707,2.511 -0.221,4.911 -0.928,2.4 -2.615,5.479 -1.559,5.678 0,0 0.688,0.828 3.121,-3.096 2.432,-3.925 2.891,-4.521 2.447,-5.877 -0.445,-1.356 -1.482,-7.037 -1.473,-10.257 0.01,-3.219 0.307,-9.121 1.078,-10.185 0.77,-1.063 1.545,1.236 1.545,1.236 0,0 0.453,4.855 2.777,5.091 0,0 -0.131,5.42 0.777,6.862 0.91,1.442 1.021,3.175 3.388,1.473 l 0.297,-0.867 c 0,0 0.113,-1.449 0.32,-1.604 0.209,-0.157 0.42,-1.29 0.051,-2.198 -0.371,-0.908 2.027,-6.06 2.246,-6.461 0.218,-0.402 1.113,-1.604 0.172,-2.605 z M 75.935,134.165 c -2.531,-0.462 -0.689,1.141 -1.877,0.398 -0.92,-0.576 0.133,-1.219 0.133,-1.219 0.682,-0.596 0.939,-0.765 0.939,-0.765 1.238,-0.907 1.16,-0.382 1.16,-0.382 -0.309,0.836 0.094,1.258 0.094,1.258 0,0 1.205,1.011 -0.449,0.71 z m 9.539,-15.328 c -0.764,0 -1.381,-0.618 -1.381,-1.38 0,-0.763 0.617,-1.38 1.381,-1.38 0.762,0 1.379,0.617 1.379,1.38 0,0.762 -0.618,1.38 -1.379,1.38 z m 80.652,36.831 c 0,0 -0.867,1.954 -2.068,-1.809 -1.201,-3.762 -1.482,-5.271 -1.482,-5.271 0,0 -1.76,-3.581 2.535,-1.771 1.048,0.441 1.113,8.346 1.015,8.851 z"
   id="path4" />&#10;		<path
   fill="#558956"
   d="m 113.817,160.25 c 2.914,0.345 10.766,2.244 11.486,-1.357 -2.816,0.263 -5.678,0.171 -8.459,-0.32 -0.959,-0.169 -4.35,-1.224 -5.295,-0.288 -1.8,1.782 0.993,2.196 2.268,1.965 z m 47.752,-3.777 c -3.668,-0.903 -8.922,0.272 -12.844,0.378 -2.52,0.066 -4.594,-0.326 -7.1,-0.678 -4.314,-0.63 -3.049,0.539 -2.268,2.869 0.527,1.578 21.869,1.371 22.212,-2.569 z m 13.016,2.528 c -1.109,-3.116 -2.172,-8.029 -4.586,-2.515 -1.338,3.057 0.922,8.128 0.475,12.126 -0.258,2.295 -5.615,5.486 -4.344,7.658 0.914,0.926 -3.275,-0.115 -4.932,-0.359 -3.078,-0.453 -3.133,-2.182 -4.717,-2.836 -3.66,-1.51 -9.355,-1.91 -6.592,3.523 0.811,1.258 -3.139,-0.564 -4.602,-1.539 -1.584,-1.059 -2.805,1.646 -4.123,2.129 -5.199,1.895 -10.328,-0.592 -12.865,-4.881 -1.508,-2.547 -2.652,-6.604 -5.268,-8.012 -1.201,-0.646 -2.631,0.549 -3.967,0.426 -2.676,-0.245 -3.111,-1.353 -5.471,-2.14 -6.027,-2.01 -2.875,5.767 -7.18,6.845 -2.977,0.746 -1.596,4.676 -5.971,5.229 -2.389,0.303 -5.955,0.176 -7.209,-2.439 -0.85,-1.775 0.82,-3.006 1.055,-4.639 0.873,-6.122 -5.697,-1.58 -5.473,-5.914 0.896,-2.88 6.531,4.516 7.838,3.106 7.094,-7.797 -13.172,-6.647 -15.229,-4.438 -1.289,1.424 -0.607,2.414 4.387,6.621 1.16,0.977 -1.777,3.229 0.27,5.506 1.871,2.078 0.984,5.123 3.252,6.99 2.227,1.83 5.389,0.73 7.172,3.252 1.109,1.463 5.115,-7.033 5.471,-5.363 0.172,3.596 -0.223,10.525 0.889,9.648 2.879,-1.387 4.32,1.893 6.949,0.277 2.455,-1.504 5.658,0.961 8.273,1.969 6.365,2.455 9.453,-0.563 15.68,-0.246 2.082,0.105 5.369,1.494 7.293,1.039 3.049,-0.723 5.205,-1.951 8.084,-3.078 2.822,-1.105 8.709,-0.328 10.123,-3.301 0.357,-0.748 -2.232,-2.57 -0.408,-3.418 1.465,-0.68 2.41,-0.326 2.945,1.383 7.373,-4.922 15.481,-11.984 18.788,-20.494 0.211,-1.498 -4.642,1.722 -6.007,-2.115 z m -48.195,18.082 c 0.516,0.053 3.287,-4.559 3.455,0.186 -0.024,1.15 -4.58,0.642 -3.455,-0.186 z m -6.67,-6.045 c 2.719,-1.369 5.039,3.531 4.238,3.473 -0.467,0.869 -7.137,-2.012 -4.238,-3.473 z m -6.246,15.156 c -0.73,1.256 -1.883,-3.275 -2.744,-6.373 -0.33,-1.188 -2.816,-2.424 -2.443,-3.168 0.678,-1.354 2.746,-0.871 3.176,0.336 0.983,2.746 3.063,6.244 2.011,9.205 z m 1.201,-11.935 c -1.211,-0.023 -1.738,-0.838 -2.574,-2.004 0,0 -1.123,-1.453 0.461,-1.826 2.744,-0.65 3.215,1.387 3.412,2.244 0.199,0.859 -0.088,1.607 -1.299,1.586 z m 17.289,8.754 c 0.014,1.283 -3.145,3.35 -4.852,3.43 -1.656,0.08 -2.934,-2.08 -4.395,-1.467 -4.34,1.826 -1.156,-2.473 -5.246,-2.969 -1.049,-0.439 -2.02,-4.15 -0.986,-3.682 1.828,0.795 4.816,4.869 5.525,4.436 2.016,-1.869 3.236,-0.668 5.352,-0.881 1.946,-0.193 4.762,-3.309 4.602,1.133 z m 7.129,0.359 c -0.355,-1.313 7.619,-7.283 7.156,-2.451 -0.008,1.625 -6.352,5.42 -7.156,2.451 z m 5.043,3.68 c 0,-1.621 5.332,-4.916 5.863,-1.701 -0.225,0.959 -5.863,2.703 -5.863,1.701 z m 9.271,-6.334 c 0.523,-5.227 3.652,0.279 4.088,2.725 -1.389,1.814 -4.287,-0.79 -4.088,-2.725 z"
   id="path5" />&#10;	</g>&#10;	<g
   id="g15">&#10;		<path
   d="m 51.018,74.961 1.419,-1.785 6.687,5.318 -1.279,-12.117 1.838,-2.311 0.913,9.956 12.678,0.484 -1.792,2.254 -10.636,-0.546 0.308,3.893 4.695,3.734 -1.419,1.785 z"
   id="path6" />&#10;		<path
   d="m 68.579,56.201 1.97,-1.57 15.919,9.213 -1.969,1.571 -4.681,-2.864 -5.664,4.521 1.719,5.229 -1.838,1.467 z m 4.941,8.921 4.538,-3.622 -7.216,-4.464 -0.037,0.03 z"
   id="path7" />&#10;		<path
   d="m 80.943,47.189 2.836,-1.299 10.906,10.843 -1.064,-15.351 2.836,-1.3 7.137,15.579 -1.965,0.9 -5.937,-12.961 -0.044,0.02 1.071,15.189 -1.767,0.811 -10.802,-10.731 -0.045,0.02 5.938,12.961 -1.964,0.9 z"
   id="path8" />&#10;		<path
   d="m 104.102,37.991 7.383,-1.39 c 3.374,-0.635 5.514,0.867 6.104,4.005 0.591,3.138 -0.852,5.339 -4.229,5.95 l -5.143,0.968 1.296,6.888 -2.241,0.422 z m 3.759,7.646 4.387,-0.826 c 2.553,-0.455 3.477,-1.777 3.1,-3.782 -0.378,-2.005 -1.715,-2.878 -4.262,-2.397 l -4.389,0.826 z"
   id="path9" />&#10;		<path
   d="m 122,35.44 2.277,-0.096 0.719,17.116 -2.277,0.096 z"
   id="path10" />&#10;		<path
   d="m 131.008,35.143 2.406,0.279 7.363,14.838 0.047,0.006 1.6,-13.801 2.145,0.249 -1.971,17.018 -2.479,-0.287 -7.308,-14.688 -0.047,-0.005 -1.583,13.656 -2.146,-0.248 z"
   id="path11" />&#10;		<path
   d="m 159.223,40.637 c 5.109,1.891 6.207,6.878 4.582,11.268 -1.625,4.389 -5.704,7.459 -10.813,5.567 -5.109,-1.892 -6.207,-6.878 -4.582,-11.267 1.625,-4.389 5.704,-7.459 10.813,-5.568 z m -5.565,15.035 c 3.916,1.449 6.809,-1.318 8.008,-4.56 1.2,-3.241 0.807,-7.226 -3.109,-8.675 -3.916,-1.449 -6.809,1.318 -8.008,4.559 -1.2,3.241 -0.807,7.226 3.109,8.676 z"
   id="path12" />&#10;		<path
   d="m 178.183,56.753 c 1.135,-2.212 0.355,-3.956 -1.631,-5.258 -1.625,-1.065 -3.592,-1.522 -4.815,0.344 -2.314,3.531 8.486,7.054 4.79,12.692 -1.999,3.051 -5.791,2.314 -8.399,0.604 -3.211,-2.104 -4.881,-5.466 -2.605,-8.937 l 1.807,1.184 c -1.579,2.408 -0.256,4.767 1.911,6.188 1.726,1.131 3.986,1.838 5.342,-0.229 2.578,-3.933 -8.289,-7.355 -4.843,-12.612 1.894,-2.89 5.317,-2.51 7.946,-0.786 2.929,1.92 4.269,4.777 2.304,7.993 z"
   id="path13" />&#10;		<path
   d="m 188.346,58.332 1.603,1.621 -6.073,6.008 12.183,0.168 2.076,2.098 -9.993,-0.274 -1.985,12.528 -2.024,-2.047 1.804,-10.493 -3.901,-0.157 -4.265,4.219 -1.604,-1.62 z"
   id="path14" />&#10;		<path
   d="m 201.156,72.568 1.338,1.846 -13.88,10.057 -1.338,-1.847 z"
   id="path15" />&#10;	</g>&#10;	<g
   id="g27">&#10;		<path
   d="m 53.895,144.369 2.245,7.168 c 1.025,3.275 -0.216,5.576 -3.263,6.529 -3.045,0.954 -5.4,-0.22 -6.402,-3.502 l -1.563,-4.993 -6.688,2.095 -0.681,-2.176 z m -7.152,4.629 1.334,4.26 c 0.751,2.48 2.173,3.242 4.119,2.633 1.946,-0.609 2.656,-2.039 1.882,-4.512 l -1.334,-4.26 z"
   id="path16" />&#10;		<path
   d="m 60.455,161.746 1.187,2.222 -11.956,13.978 -1.188,-2.223 3.668,-4.081 -3.414,-6.392 -5.455,0.738 -1.107,-2.074 z m -9.671,3.234 2.736,5.121 5.702,-6.283 -0.023,-0.042 z"
   id="path17" />&#10;		<path
   d="m 65.813,171.048 5.204,6.163 c 2.09,2.476 2.04,5.094 -0.069,6.875 -1.596,1.348 -3.452,1.754 -5.24,0.529 l -0.036,0.031 c 0.992,1.77 0.102,3.023 -1.039,4.239 -1.188,1.16 -2.702,2.345 -2.963,3.821 l -1.643,-1.944 c 0.114,-0.944 1.759,-1.862 2.826,-3.202 1.096,-1.271 1.947,-2.494 0.523,-4.181 l -3.594,-4.255 -5.594,4.723 -1.472,-1.742 z m -1.497,10.47 c 1.363,1.613 2.979,2.67 4.885,1.059 1.303,-1.1 1.65,-2.586 0.271,-4.219 l -3.655,-4.328 -4.567,3.856 z"
   id="path18" />&#10;		<path
   d="m 76.548,183.156 1.804,1.396 -5.231,6.758 12.103,-1.439 2.335,1.809 -9.946,1.043 -0.318,12.686 -2.277,-1.763 0.407,-10.644 -3.89,0.357 -3.674,4.746 -1.803,-1.396 z"
   id="path19" />&#10;		<path
   d="m 95.677,195.953 2.284,0.812 3.846,16.116 0.046,0.017 4.655,-13.093 2.036,0.724 -5.741,16.146 -2.353,-0.836 -3.827,-15.957 -0.045,-0.016 -4.607,12.957 -2.035,-0.724 z"
   id="path20" />&#10;		<path
   d="m 116.632,201.816 2.501,0.311 4.531,17.832 -2.5,-0.311 -1.222,-5.352 -7.193,-0.895 -2.542,4.885 -2.334,-0.29 z m -2.932,9.77 5.765,0.717 -1.85,-8.284 -0.047,-0.007 z"
   id="path21" />&#10;		<path
   d="m 127.354,202.816 8.035,-0.682 c 3.227,-0.273 5.334,1.281 5.567,4.031 0.177,2.08 -0.565,3.828 -2.598,4.579 l 0.004,0.048 c 2.017,0.214 2.526,1.664 2.856,3.297 0.26,1.641 0.351,3.559 1.404,4.625 l -2.534,0.216 c -0.704,-0.639 -0.502,-2.511 -0.979,-4.155 -0.402,-1.627 -0.906,-3.029 -3.106,-2.844 l -5.548,0.471 0.619,7.293 -2.271,0.193 z m 7.673,7.272 c 2.104,-0.178 3.898,-0.885 3.688,-3.371 -0.145,-1.697 -1.156,-2.84 -3.284,-2.659 l -5.643,0.479 0.505,5.953 z"
   id="path22" />&#10;		<path
   d="m 150.021,198.6 c 5.189,-1.662 9.129,1.588 10.557,6.045 1.429,4.457 0.111,9.391 -5.078,11.053 -5.188,1.663 -9.128,-1.586 -10.557,-6.043 -1.427,-4.458 -0.11,-9.392 5.078,-11.055 z m 4.893,15.269 c 3.978,-1.274 4.547,-5.238 3.492,-8.529 -1.055,-3.291 -3.821,-6.186 -7.799,-4.911 -3.977,1.274 -4.547,5.237 -3.492,8.529 1.055,3.292 3.823,6.186 7.799,4.911 z"
   id="path23" />&#10;		<path
   d="m 160.059,195.335 5.043,-3.021 c 4.527,-2.713 8.428,-1.944 11.252,2.77 2.946,4.92 2.449,8.993 -2.449,11.928 l -5.043,3.02 z m 9.771,11.879 3.252,-1.948 c 1.338,-0.801 4.719,-3.329 1.477,-8.742 -2.097,-3.5 -4.663,-4.844 -8.266,-2.686 L 163,195.811 Z"
   id="path24" />&#10;		<path
   d="m 179.028,181.222 c 3.917,-3.786 8.888,-2.614 12.14,0.751 3.252,3.365 4.253,8.372 0.336,12.158 -3.918,3.785 -8.888,2.614 -12.141,-0.751 -3.252,-3.365 -4.252,-8.372 -0.335,-12.158 z m 11.142,11.528 c 3.002,-2.902 1.76,-6.708 -0.641,-9.193 -2.402,-2.484 -6.164,-3.855 -9.166,-0.954 -3.004,2.901 -1.762,6.708 0.641,9.192 2.4,2.486 6.162,3.857 9.166,0.955 z"
   id="path25" />&#10;		<path
   d="m 209.205,170.121 -1.238,2.027 -14.332,-4.157 -0.025,0.041 10.234,10.88 -1.237,2.028 -16.919,-5.173 1.213,-1.988 13.922,4.555 0.025,-0.041 -10.174,-10.701 1.287,-2.111 14.147,4.186 0.024,-0.041 -10.359,-10.395 1.187,-1.947 z"
   id="path26" />&#10;		<path
   d="m 209.135,150.869 6.715,2.01 -0.654,2.185 -6.715,-2.009 -11.604,3.441 0.778,-2.598 9.291,-2.582 -6.38,-7.145 0.743,-2.484 z"
   id="path27" />&#10;	</g>&#10;</g>&#10;</svg>
