<?xml version="1.0" encoding="UTF-8" standalone="no"?>
<svg
   xmlns:dc="http://purl.org/dc/elements/1.1/"
   xmlns:cc="http://creativecommons.org/ns#"
   xmlns:rdf="http://www.w3.org/1999/02/22-rdf-syntax-ns#"
   xmlns:svg="http://www.w3.org/2000/svg"
   xmlns="http://www.w3.org/2000/svg"
   xmlns:xlink="http://www.w3.org/1999/xlink"
   xmlns:sodipodi="http://sodipodi.sourceforge.net/DTD/sodipodi-0.dtd"
   xmlns:inkscape="http://www.inkscape.org/namespaces/inkscape"
   width="480pt"
   height="290pt"
   viewBox="0 0 480 290"
   version="1.1"
   id="svg3991"
   sodipodi:docname="AKT Mamut LOGO CIRCLE.svg"
   inkscape:version="0.92.2 (5c3e80d, 2017-08-06)"
   inkscape:export-filename="D:\Users\amroz\Desktop\AKT Mamut LOGO\svg\AKT Mamut LOGO.png"
   inkscape:export-xdpi="96"
   inkscape:export-ydpi="96">
  <metadata
     id="metadata3997">
    <rdf:RDF>
      <cc:Work
         rdf:about="">
        <dc:format>image/svg+xml</dc:format>
        <dc:type
           rdf:resource="http://purl.org/dc/dcmitype/StillImage" />
        <dc:title></dc:title>
      </cc:Work>
    </rdf:RDF>
  </metadata>
  <defs
     id="defs3995">
    <linearGradient
       inkscape:collect="always"
       id="linearGradient4557">
      <stop
         style="stop-color:#000000;stop-opacity:1;"
         offset="0"
         id="stop4553" />
      <stop
         style="stop-color:#000000;stop-opacity:0;"
         offset="1"
         id="stop4555" />
    </linearGradient>
    <radialGradient
       inkscape:collect="always"
       xlink:href="#linearGradient4557"
       id="radialGradient4561"
       cx="237.5"
       cy="146.73079"
       fx="237.5"
       fy="146.73079"
       r="258.65384"
       gradientTransform="matrix(1,0,0,0.98141269,0,2.7273302)"
       gradientUnits="userSpaceOnUse" />
  </defs>
  <sodipodi:namedview
     pagecolor="#ffffff"
     bordercolor="#666666"
     borderopacity="1"
     objecttolerance="10"
     gridtolerance="10"
     guidetolerance="10"
     inkscape:pageopacity="0"
     inkscape:pageshadow="2"
     inkscape:window-width="1822"
     inkscape:window-height="1051"
     id="namedview3993"
     showgrid="false"
     inkscape:zoom="0.78"
     inkscape:cx="102.39704"
     inkscape:cy="193.33333"
     inkscape:window-x="-9"
     inkscape:window-y="-9"
     inkscape:window-maximized="1"
     inkscape:current-layer="svg3991" />
  <g
     id="surface4"
     transform="translate(1.9230733,6.7307698)"
     style="fill:none;fill-opacity:1">
    <text
       style="font-style:normal;font-variant:normal;font-weight:normal;font-stretch:normal;font-size:50px;font-family:'Fjalla One';-inkscape-font-specification:'Fjalla One, Normal';font-variant-ligatures:normal;font-variant-caps:normal;font-variant-numeric:normal;font-feature-settings:normal;text-align:start;writing-mode:lr-tb;text-anchor:start;fill:none;fill-opacity:1"
       font-size="50"
       xml:space="preserve"
       id="text3988"
       x="176.43311"
       y="266.75"><![CDATA[AKT Mamut]]></text>
    <ellipse
       id="path36"
       cx="237.5"
       cy="146.73079"
       rx="258.65384"
       ry="253.84616"
       style="fill:none;stroke-width:0.75;fill-opacity:1" />
  </g>
  <g
     id="surface2"
     transform="matrix(1.8722492,-0.23867955,0.22455116,1.9900481,-257.34475,-15.408814)">
    <path
       style="fill:#000000;fill-opacity:1;fill-rule:evenodd;stroke:none"
       d="m 309.19922,101.35156 c -0.0312,-0.0352 -0.46485,-0.15234 -1.30078,-0.35156 -0.86328,-0.23437 -2.04688,-0.35156 -3.54688,-0.35156 -1.5,0 -3.21875,0.28515 -5.15234,0.85156 -1.96485,0.56641 -4.05078,1.61719 -6.25,3.14844 -0.26563,0.20312 -0.55078,0.41797 -0.84766,0.65234 l 2.75,2.34766 1.14844,1.05078 c 0,-0.0312 0.21484,-0.44922 0.64844,-1.25 0.43359,-0.80078 1.15234,-1.71484 2.15234,-2.75 1,-1 2.34766,-1.84766 4.05078,-2.55078 1.69922,-0.69922 3.81641,-0.96485 6.34766,-0.79688"
       id="path3949"
       inkscape:connector-curvature="0" />
    <path
       style="fill:#b8bfc5;fill-opacity:1;fill-rule:evenodd;stroke:none"
       d="m 307.89844,80.449219 c -1.4336,-1.332031 -2.78125,-2.082031 -4.04688,-2.25 C 302.58203,78 301.55078,78.035156 300.75,78.300781 c -0.80078,0.265625 -1.21484,0.414063 -1.25,0.449219 0.0352,0.03516 0.0508,0.05078 0.0508,0.05078 0.86719,-0.335937 1.84766,-0.285156 2.94922,0.148438 1.10156,0.46875 2.26562,1.550781 3.5,3.25 1.66797,2.234375 3.13281,3.75 4.39844,4.550781 1.30078,0.800781 2.38672,1.167969 3.25,1.101562 0.86718,-0.03516 1.51953,-0.203124 1.95312,-0.5 0.33203,-0.234374 0.54688,-0.417968 0.64844,-0.550781 0.0352,-0.06641 0.0508,-0.101562 0.0508,-0.101562 l -0.25,-3.449219 c 0,0 -0.0156,0 -0.0508,0 -0.73438,0.632812 -1.46484,0.964844 -2.19922,1 -0.69922,0.06641 -1.51562,-0.214844 -2.44922,-0.851562 -0.93359,-0.597657 -2.08594,-1.582032 -3.45312,-2.949219"
       id="path3951"
       inkscape:connector-curvature="0" />
    <path
       style="fill:#b8bfc5;fill-opacity:1;fill-rule:evenodd;stroke:none"
       d="m 311.69922,129.60156 c -0.53125,2.63281 -0.59766,4.86328 -0.19922,6.69922 0.60156,-0.43359 1.30078,-0.75 2.10156,-0.94922 -0.20312,-0.60156 -0.33594,-1.20312 -0.40234,-1.80078 C 313,132.51562 312.89844,131.5 312.89844,130.5 c -0.36328,-0.30078 -0.76563,-0.60156 -1.19922,-0.89844"
       id="path3953"
       inkscape:connector-curvature="0" />
    <path
       style="fill:#b8bfc5;fill-opacity:1;fill-rule:evenodd;stroke:none"
       d="m 312.05078,138.25 c 0.5,1.16797 1.14844,2.16797 1.94922,3 0.80078,0.80078 1.66797,1.46484 2.60156,2 0.26563,-0.83203 0.69922,-1.64844 1.29688,-2.44922 -1.26563,-0.63281 -2.26563,-1.5 -3,-2.60156 -0.89844,-0.0977 -1.84766,-0.082 -2.84766,0.0508"
       id="path3955"
       inkscape:connector-curvature="0" />
    <path
       style="fill:#b8bfc5;fill-opacity:1;fill-rule:evenodd;stroke:none"
       d="m 313.05078,126.94922 c 0.0312,-0.43359 0.082,-0.83203 0.14844,-1.19922 0.16797,-1.23437 0.28515,-1.88281 0.35156,-1.94922 -0.0664,0.13281 -0.13281,0.28125 -0.19922,0.44922 -0.33594,0.86719 -0.63672,1.71484 -0.90234,2.55078 0.19922,0.0312 0.40234,0.082 0.60156,0.14844"
       id="path3957"
       inkscape:connector-curvature="0" />
    <path
       style="fill:#b8bfc5;fill-opacity:1;fill-rule:evenodd;stroke:none"
       d="m 318.05078,143.85156 c 1.23438,0.5 2.39844,0.83203 3.5,1 1.09766,0.19922 2,0.31641 2.69922,0.34766 0.73437,0 1.10156,0 1.10156,0 l 0.64844,-1.25 1.5,-3.09766 c -2.06641,0.56641 -3.86719,0.83203 -5.39844,0.79688 -0.63672,0.20312 -1.30078,0.48437 -2,0.85156 -0.73437,0.36719 -1.41797,0.81641 -2.05078,1.35156"
       id="path3959"
       inkscape:connector-curvature="0" />
    <path
       style="fill:#949ca1;fill-opacity:1;fill-rule:evenodd;stroke:none"
       d="m 223.14844,66.050781 c 6.63672,-2.699219 13.15234,-4.835937 19.55078,-6.402343 -6.69922,1.535156 -13.21485,3.667968 -19.55078,6.402343"
       id="path3961"
       inkscape:connector-curvature="0" />
    <path
       style="fill:#949ca1;fill-opacity:1;fill-rule:evenodd;stroke:none"
       d="m 312.89844,130.5 c 0,1 0.10156,2.01562 0.30078,3.05078 -0.16406,-0.90234 -0.25,-1.90234 -0.25,-3 -0.0312,-0.0352 -0.0508,-0.0508 -0.0508,-0.0508"
       id="path3963"
       inkscape:connector-curvature="0" />
    <path
       style="fill:#949ca1;fill-opacity:1;fill-rule:evenodd;stroke:none"
       d="m 313.05078,126.94922 c 0,0 0,0 0,0 0.0664,-0.36719 0.11719,-0.76563 0.14844,-1.19922 -0.0664,0.36719 -0.11719,0.76563 -0.14844,1.19922"
       id="path3965"
       inkscape:connector-curvature="0" />
    <path
       style="fill:#949ca1;fill-opacity:1;fill-rule:evenodd;stroke:none"
       d="M 309.19922,101.39844 310,103.69922 c 1.03516,2.83594 2.73437,5.16797 5.10156,7 0.4336,-3.80078 0.76563,-7.73438 1,-11.800782 0.23047,-4.066407 0.28125,-8.097657 0.14844,-12.097657 -0.10156,0.132813 -0.31641,0.332031 -0.64844,0.597657 0.0312,-0.03125 0.0469,-0.04688 0.0469,-0.04688 -0.13282,1.398438 -0.63282,2.398438 -1.5,3 l 0.10156,0.04688 c -2.19922,1.835937 -4.23438,2.902343 -6.10156,3.203124 -1.86328,0.265626 -3.53125,0.04688 -5,-0.652343 -1.46485,-0.699219 -2.71485,-1.582031 -3.75,-2.648438 -1,-1.066406 -1.78125,-2.035156 -2.34766,-2.902343 -0.53516,-0.863282 -0.80078,-1.316407 -0.80078,-1.347657 1.10156,-0.96875 2.16797,-1.667969 3.19922,-2.101562 1,-0.433594 1.91797,-0.699219 2.75,-0.800781 C 301.06641,82.183594 300,81.699219 299,81.699219 c -1,0 -1.81641,0.152343 -2.44922,0.449219 -0.63281,0.335937 -0.96875,0.519531 -1,0.550781 0,-0.03125 0.16406,-0.300781 0.5,-0.800781 0.33203,-0.53125 0.80078,-1.097657 1.39844,-1.699219 0.60156,-0.632813 1.30078,-1.097657 2.10156,-1.398438 0,0 -0.0156,0 -0.0508,0 0.0352,-0.06641 0.44922,-0.234375 1.25,-0.5 0.80078,-0.265625 1.83203,-0.300781 3.10156,-0.101562 1.26563,0.199219 2.61328,0.949219 4.04688,2.25 1.36718,1.367187 2.51953,2.367187 3.45312,3 0.9336,0.601562 1.76563,0.882812 2.5,0.851562 0.69922,-0.06641 1.4336,-0.402343 2.19922,-1 -0.36719,-4.835937 -1.21875,-9.25 -2.55078,-13.25 -1.36719,-4 -3.39844,-7.285156 -6.10156,-9.851562 -2.69922,-2.566407 -6.26563,-4.097657 -10.69922,-4.597657 -5.23438,-0.06641 -9.84766,0.433594 -13.84766,1.5 -0.43359,0.230469 -1.05078,0.5 -1.85156,0.796876 -1.10156,0.566406 -2.39844,1.386718 -3.89844,2.453124 -1.53515,1.097657 -3.0664,2.480469 -4.60156,4.148438 -1.53516,1.699219 -2.88281,3.714844 -4.05078,6.050781 -1.13281,2.332031 -1.88281,5.03125 -2.25,8.097657 -0.33203,3.066406 -0.0508,6.5 0.85156,10.300781 0.93359,1.367187 2.13281,2.632812 3.59766,3.800781 0.0664,0.03516 0.95312,-0.214844 2.65234,-0.75 1.73438,-0.535156 3.94922,-1.535156 6.64844,-3 2.73437,-1.464844 5.60156,-3.601562 8.60156,-6.398438 3,-2.800781 5.78125,-6.453124 8.34766,-10.953124 -0.46485,3.535156 -1.46485,6.785156 -3,9.75 -1.5,3 -3.31641,5.703124 -5.44922,8.101562 -2.09766,2.398438 -4.26563,4.515625 -6.5,6.351562 -2.26563,1.796876 -4.38281,3.316407 -6.34766,4.546878 -1.93359,1.23437 -3.51953,2.15234 -4.75,2.75 -1.23437,0.63672 -1.86719,0.95312 -1.90234,0.95312 -2.56641,-2.23437 -4.56641,-4.749998 -6,-7.550779 -1.46485,-2.800781 -2.5,-5.601562 -3.09766,-8.402343 -0.63672,-2.832032 -1.01953,-5.449219 -1.15234,-7.847657 -0.0977,-2.402343 -0.0977,-4.335937 0,-5.800781 0.13281,-1.433594 0.19922,-2.183594 0.19922,-2.25 1.33593,-2.066406 2.73437,-3.867188 4.20312,-5.398438 -0.83594,-0.367187 -2.5,-0.785156 -5,-1.25 -2.5,-0.46875 -5.8164,-0.636718 -9.95312,-0.5 C 243.98437,65.234375 239,66.015625 233.19922,67.449219 227.80078,68.75 223.23437,70.851562 219.5,73.75 c -3.69922,2.867188 -6.71484,6.183594 -9.05078,9.949219 -2.33203,3.734375 -4.13281,7.550781 -5.39844,11.449219 -1.26562,3.902343 -2.16797,7.519532 -2.69922,10.851562 -0.53515,3.33203 -0.83594,6.03516 -0.90234,8.10156 -0.0977,2.03125 -0.13281,3.08203 -0.0977,3.14844 -1.03515,-5.73437 -1.45312,-10.88281 -1.25,-15.44922 0.19922,-4.566405 0.81641,-8.585936 1.84766,-12.05078 1,-3.433594 2.21875,-6.316406 3.65234,-8.648438 1.46485,-2.335937 2.94922,-4.101562 4.44922,-5.300781 -0.40234,0.199219 -0.76562,0.398438 -1.10156,0.597657 -6.06641,3.335937 -11.36719,6.652343 -15.89844,9.953124 -4.56641,3.265626 -8.30078,6.214844 -11.19922,8.847657 -2.90234,2.601562 -4.95312,4.535156 -6.15234,5.800781 -2.13281,2.5 -4.1836,5.14844 -6.14844,7.94922 0.0312,-0.0312 0.55078,-0.43359 1.55078,-1.19922 0.96485,-0.76562 2.28125,-1.75 3.94922,-2.94922 1.66406,-1.19922 3.53125,-2.43359 5.59766,-3.69922 2.03515,-1.269529 4.13672,-2.402341 6.30078,-3.402341 0.0352,-0.03125 0.60156,-0.617188 1.69922,-1.75 1.10156,-1.132813 2.63672,-2.683594 4.60156,-4.648438 -1,1.765625 -1.89844,3.617188 -2.69922,5.550781 -1.33594,3.296878 -2.60156,6.414068 -3.80078,9.347658 -4.06641,10.10156 -7.30078,18.41797 -9.69922,24.94922 -2.40234,6.53515 -4.19922,11.63672 -5.40234,15.30078 -1.16407,3.63281 -1.9336,6.16797 -2.29688,7.60156 -0.36719,1.46484 -0.53515,2.16406 -0.5,2.09766 H 180.25 c 0.33203,-0.73047 0.51562,-1.69922 0.55078,-2.89844 0.0312,-1.19922 -0.43359,-2.41797 -1.40234,-3.64844 0.0352,-0.0352 0.41797,0.0664 1.15234,0.29688 0.73438,0.26953 1.5,0.86718 2.30078,1.80078 0.83203,0.93359 1.41406,2.41797 1.75,4.44922 H 187 c 0.16797,-0.9336 0.19922,-1.98047 0.10156,-3.14844 C 187,151.83203 186.63281,150.64844 186,149.44922 c 0.0352,-0.0312 0.31641,0.0859 0.85156,0.35156 0.53125,0.23438 1.11328,0.81641 1.75,1.75 0.63281,0.96484 1.11328,2.46484 1.44922,4.5 0.0977,-0.26562 0.19922,-0.81641 0.30078,-1.65234 0.13281,-0.86328 0.11328,-1.91407 -0.0508,-3.14844 -0.16797,-1.23438 -0.61719,-2.56641 -1.35156,-4 -0.0664,-0.0664 0.0156,-0.81641 0.25,-2.25 0.19922,-1.39844 0.83594,-3.21484 1.90234,-5.44922 1.09766,-2.23437 2.91406,-4.56641 5.44922,-7 2.53125,-2.40234 6.09766,-4.63281 10.69922,-6.69922 1.39844,-0.60156 2.91797,-1.16797 4.55078,-1.70312 4.46484,-1.5 9.89844,-2.61328 16.30078,-3.34766 1.9336,-0.23437 3.96485,-0.41797 6.09766,-0.55078 1.80078,-0.10156 3.68359,-0.16797 5.65234,-0.19922 L 251.30078,93.5 l -5.65234,31.44922 c 0.10156,0.63281 0.3164,1.35156 0.65234,2.15234 0.36719,0.79688 0.96484,1.53125 1.80078,2.19922 0.83203,0.66406 2,1.14844 3.5,1.44922 -0.0352,0.0352 -0.43359,0.19922 -1.20312,0.5 -0.79688,0.30078 -1.73047,0.51562 -2.79688,0.64844 -1.0664,0.10156 -2.08594,-0.0977 -3.05078,-0.59766 l -4.35156,24.30078 h 8 c 0.30078,-0.76953 0.44922,-1.71875 0.44922,-2.85156 0,-1.13281 -0.46485,-2.30078 -1.39844,-3.5 0.0352,-0.0352 0.41797,0.082 1.14844,0.35156 0.70312,0.23047 1.46875,0.79688 2.30078,1.69922 0.80078,0.89844 1.38281,2.33203 1.75,4.30078 h 2.44922 c 0.13672,-0.93359 0.15234,-1.96875 0.0508,-3.10156 -0.0977,-1.13281 -0.44922,-2.26563 -1.05078,-3.39844 0.0352,-0.0352 0.30078,0.082 0.80078,0.34766 0.53515,0.23437 1.11719,0.8164 1.75,1.75 0.60156,0.93359 1.08594,2.40234 1.44922,4.40234 H 258.25 c 0.0352,-0.0352 0.18359,-0.41797 0.44922,-1.15234 0.26562,-0.69922 0.38281,-1.59766 0.35156,-2.69922 -0.0352,-1.06641 -0.46875,-2.13281 -1.30078,-3.19922 -0.53516,-0.69922 -0.71484,-2.26562 -0.55078,-4.69922 0.16797,-2.40234 0.68359,-5.30078 1.55078,-8.70312 0.83203,-3.39844 2.01562,-6.94922 3.55078,-10.64844 0.46484,-1.10156 0.98438,-2.21484 1.55078,-3.35156 1.03125,-2.13281 2.1836,-4.16406 3.44922,-6.09766 1.30078,-1.96875 2.69922,-3.75 4.19922,-5.35156 0.80078,-0.83203 1.63281,-1.59766 2.5,-2.30078 1.39844,-1.16406 2.88281,-2.11328 4.44922,-2.84766 1.60156,-0.73437 3.26562,-1.21875 5,-1.44922 0.0351,-0.0352 0.5,-0.10156 1.40234,-0.20312 0.89844,-0.0977 2.08203,-0.0469 3.54688,0.15234 1.43359,0.19922 2.95312,0.75 4.55078,1.64844 2.19922,-1.53125 4.26562,-2.58203 6.19922,-3.14844 1.96875,-0.60156 3.70312,-0.88281 5.20312,-0.85156 1.5,0 2.6836,0.10156 3.54688,0.30078 0.83593,0.23438 1.26953,0.36719 1.30078,0.39844"
       id="path3967"
       inkscape:connector-curvature="0" />
    <path
       style="fill:#949ca1;fill-opacity:1;fill-rule:evenodd;stroke:none"
       d="m 325.39844,145.19922 c -0.0312,0 -0.39844,0 -1.09766,0 -0.69922,-0.0312 -1.61719,-0.13281 -2.75,-0.30078 -1.10156,-0.19922 -2.26562,-0.53125 -3.5,-1 -0.69922,0.60156 -1.30078,1.33593 -1.80078,2.20312 -0.0352,-0.0352 -0.0352,-0.3164 0,-0.85156 0.0352,-0.56641 0.16797,-1.25 0.39844,-2.05078 -0.96485,-0.5 -1.83203,-1.16406 -2.59766,-2 -0.80078,-0.80078 -1.44922,-1.78125 -1.94922,-2.94922 -1.16797,0.13281 -2.30078,0.53516 -3.40234,1.19922 0,-0.0664 0.23437,-0.44922 0.69922,-1.14844 0.46875,-0.66797 1.16797,-1.35156 2.10156,-2.05078 -0.36719,-1.80078 -0.28516,-4.03516 0.25,-6.69922 -0.73438,-0.5 -1.55078,-0.91797 -2.44922,-1.25 -0.86719,-0.33594 -1.81641,-0.5 -2.85156,-0.5 0,-0.0352 0.28515,-0.18359 0.85156,-0.44922 0.56641,-0.26953 1.31641,-0.5 2.25,-0.70312 0.89844,-0.16406 1.88281,-0.11328 2.94922,0.15234 0.23437,-0.83594 0.53516,-1.68359 0.89844,-2.55078 0.0351,-0.19922 0.0664,-0.39844 0.10156,-0.60156 -2.83203,-0.83203 -5.28516,-1.86328 -7.35156,-3.09766 -2.06641,-1.23437 -3.79688,-2.53515 -5.19922,-3.90234 0.86719,3.0664 1.38281,6.90234 1.55078,11.5 0.19922,5.36718 1.03516,9.60156 2.5,12.70312 1.46484,3.09766 3.23437,5.36328 5.30078,6.79688 2.06641,1.43359 4.11719,2.3164 6.14844,2.65234 2.0664,0.36719 3.78515,0.46484 5.15234,0.30078 1.36328,-0.13672 2.06641,-0.21875 2.09766,-0.25 0,-0.0664 0.19922,-0.71875 0.60156,-1.95312 0.39844,-1.23047 0.96484,-2.71485 1.69922,-4.44922 l -0.60156,1.25"
       id="path3969"
       inkscape:connector-curvature="0" />
    <path
       style="fill:#949ca1;fill-opacity:1;fill-rule:evenodd;stroke:none"
       d="m 281.75,57.351562 c -0.86719,0.265626 -1.94922,0.714844 -3.25,1.347657 0.93359,-0.300781 1.76562,-0.582031 2.5,-0.847657 0.60156,-0.300781 1.08203,-0.535156 1.44922,-0.703124 -0.23438,0.06641 -0.46485,0.136718 -0.69922,0.203124"
       id="path3971"
       inkscape:connector-curvature="0" />
    <path
       style="fill:#b8bfc5;fill-opacity:1;fill-rule:evenodd;stroke:none"
       d="m 282.44922,57.148438 c 0.13281,-0.06641 0.25,-0.113282 0.35156,-0.148438 -0.30078,0.06641 -0.65234,0.183594 -1.05078,0.351562 0.23437,-0.06641 0.46484,-0.136718 0.69922,-0.203124"
       id="path3973"
       inkscape:connector-curvature="0" />
    <path
       style="fill:#b8bfc5;fill-opacity:1;fill-rule:evenodd;stroke:none"
       d="M 208.89844,76.351562 C 209.26562,76.148438 209.63281,75.949219 210,75.75 c -1.5,1.234375 -2.96484,3.015625 -4.39844,5.351562 -1.46875,2.332032 -2.70312,5.214844 -3.70312,8.648438 -1.03125,3.433594 -1.63282,7.449219 -1.79688,12.05078 -0.20312,4.56641 0.19922,9.71485 1.19922,15.44922 -0.0352,-0.0664 0,-1.11719 0.0977,-3.14844 0.10156,-2.0664 0.40234,-4.76953 0.90234,-8.10156 0.53125,-3.33203 1.43359,-6.949219 2.69922,-10.851562 1.26562,-3.898438 3.06641,-7.714844 5.39844,-11.449219 2.33593,-3.765625 5.36718,-7.097657 9.10156,-10 3.69922,-2.867188 8.25,-4.964844 13.64844,-6.300781 5.80078,-1.433594 10.78515,-2.199219 14.95312,-2.296876 4.13281,-0.136718 7.44922,0.03125 9.94922,0.5 2.5,0.464844 4.16406,0.882813 5,1.25 2.30078,-2.433593 4.64844,-4.335937 7.05078,-5.703124 2.39844,-1.332032 4.75,-2.332032 7.04688,-3 2.30078,-0.632813 4.43359,-1.082032 6.40234,-1.347657 0,0 -0.19922,0.05078 -0.60156,0.148438 -0.0312,0.03516 -0.082,0.06641 -0.14844,0.101562 4,-1.035156 8.61719,-1.515625 13.84766,-1.449219 -0.0312,-0.03516 -1.46485,-0.167968 -4.29688,-0.402343 -2.80078,-0.234375 -6.66797,-0.347657 -11.60156,-0.347657 -4.96484,0 -10.69922,0.347657 -17.19922,1.046876 -6.5,0.703124 -13.46875,1.953124 -20.90234,3.75 -6.36328,1.566406 -12.86328,3.703124 -19.5,6.402343 -6.03125,2.433594 -12,5.449219 -17.89844,9.050781 -5.5,3.332032 -10.83203,7.230469 -16,11.699219 -5.16797,4.464844 -10.06641,9.597657 -14.69922,15.398439 0,-0.0312 0.38281,-0.43359 1.14844,-1.19922 1.16797,-1.265625 3.19922,-3.199219 6.10156,-5.800781 C 184.73437,92.566406 188.46484,89.601562 193,86.300781 197.53516,83 202.83203,79.683594 208.89844,76.351562"
       id="path3975"
       inkscape:connector-curvature="0" />
    <path
       style="fill:#b8bfc5;fill-opacity:1;fill-rule:evenodd;stroke:none"
       d="m 262.80078,72.648438 c 0,0.03516 -0.0156,0.550781 -0.0508,1.550781 -0.0352,1 0.0508,2.300781 0.25,3.902343 0.16797,1.632813 0.56641,3.398438 1.19922,5.296876 0.60156,1.867187 1.53515,3.71875 2.80078,5.550781 -0.86719,-3.832031 -1.13281,-7.28125 -0.80078,-10.347657 0.33594,-3.035156 1.08594,-5.71875 2.25,-8.050781 1.13281,-2.367187 2.46875,-4.382812 4,-6.050781 1.5664,-1.699219 3.11719,-3.101562 4.65234,-4.199219 1.5,-1.066406 2.79688,-1.882812 3.89844,-2.449219 -0.73438,0.265626 -1.56641,0.546876 -2.5,0.847657 -2.16797,1 -4.64844,2.617187 -7.44922,4.851562 -2.76562,2.199219 -5.51562,5.234375 -8.25,9.097657"
       id="path3977"
       inkscape:connector-curvature="0" />
    <path
       style="fill:#b8bfc5;fill-opacity:1;fill-rule:evenodd;stroke:none"
       d="m 282.80078,57 c -0.10156,0.03516 -0.21875,0.08203 -0.35156,0.148438 -0.36719,0.167968 -0.84766,0.402343 -1.44922,0.703124 0.80078,-0.269531 1.39844,-0.535156 1.80078,-0.800781 0.0664,-0.03516 0.13281,-0.06641 0.19922,-0.101562 C 282.93359,56.984375 282.86719,57 282.80078,57"
       id="path3979"
       inkscape:connector-curvature="0" />
    <path
       style="fill:#000000;fill-opacity:1;fill-rule:evenodd;stroke:none"
       d="m 326,143.94922 c -0.76563,1.73437 -1.33203,3.21875 -1.69922,4.44922 -0.40234,1.23437 -0.60156,1.88672 -0.60156,1.95312 -0.0664,0.0312 -0.78125,0.13281 -2.14844,0.29688 -1.36719,0.13672 -3.06641,0.0195 -5.10156,-0.34766 -2.03125,-0.33594 -4.08203,-1.21875 -6.14844,-2.65234 -2.06641,-1.4336 -3.83594,-3.69922 -5.30078,-6.79688 -1.46484,-3.10156 -2.31641,-7.33594 -2.55078,-12.70312 -0.13281,-4.59766 -0.63281,-8.4336 -1.5,-11.5 1.40234,1.36719 3.13281,2.66797 5.19922,3.90234 2.0664,1.23438 4.5,2.25 7.30078,3.05078 0,0.23047 -0.0156,0.44922 -0.0508,0.64844 0.0351,-0.16797 0.0859,-0.31641 0.15234,-0.44922 -0.0352,0.0664 -0.15234,0.71485 -0.35156,1.94922 -0.0312,0.43359 -0.0664,0.85156 -0.0977,1.25 -0.0351,-0.0352 -0.0508,-0.0508 -0.0508,-0.0508 -0.19922,-0.0664 -0.38281,-0.11719 -0.55078,-0.14844 -1.06641,-0.26562 -2.05078,-0.3164 -2.94922,-0.15234 -0.93359,0.20312 -1.68359,0.43359 -2.25,0.70312 -0.56641,0.26563 -0.85156,0.39844 -0.85156,0.39844 1.03515,0.0352 1.98437,0.21484 2.85156,0.55078 0.89844,0.33203 1.69922,0.75 2.39844,1.25 0.43359,0.30078 0.83594,0.59766 1.19922,0.89844 0,0.0352 0.0195,0.0508 0.0508,0.0508 0,1.10156 0.0859,2.11719 0.25,3.05078 0.10156,0.56641 0.23437,1.14844 0.40234,1.75 -0.80078,0.19922 -1.5,0.51563 -2.10156,0.94922 -0.93359,0.69922 -1.63281,1.38281 -2.10156,2.05078 -0.46485,0.69922 -0.69922,1.08203 -0.69922,1.14844 1.10156,-0.66406 2.23437,-1.08203 3.40234,-1.25 1,-0.0977 1.94922,-0.0977 2.84766,0 0.73437,1.0664 1.73437,1.91797 3,2.55078 -0.63281,0.80078 -1.06641,1.61719 -1.30078,2.44922 -0.23047,0.80078 -0.36328,1.48437 -0.39844,2.05078 -0.0352,0.53516 -0.0352,0.81641 0,0.85156 0.5,-0.86719 1.10156,-1.61719 1.80078,-2.25 0.63281,-0.53515 1.31641,-0.98437 2.05078,-1.35156 0.69922,-0.36719 1.36328,-0.64844 2,-0.85156 1.53125,0.0352 3.34766,-0.23047 5.44922,-0.79688 L 326,143.94922 m -33.89844,-38.64844 c 0.29688,-0.19922 0.58203,-0.41797 0.84766,-0.65234 -1.59766,-0.89844 -3.13281,-1.44922 -4.59766,-1.64844 -1.43359,-0.19922 -2.60156,-0.25 -3.5,-0.14844 -0.90234,0.0977 -1.36719,0.16407 -1.40234,0.19922 -1.73438,0.23438 -3.39844,0.71485 -5,1.44922 -1.56641,0.76563 -3.05078,1.71484 -4.44922,2.85156 -0.86719,0.73047 -1.69922,1.51563 -2.5,2.34766 -1.5,1.60156 -2.89844,3.36719 -4.19922,5.30078 -1.26562,1.96484 -2.41797,4.01563 -3.44922,6.14844 -0.5664,1.10156 -1.08594,2.21875 -1.55078,3.35156 -1.53516,3.66797 -2.71875,7.19922 -3.55078,10.60156 -0.86719,3.39844 -1.38281,6.31641 -1.55078,8.75 -0.16406,2.4336 0.0156,4 0.55078,4.69922 0.83203,1.06641 1.26562,2.13281 1.30078,3.19922 0.0312,1.06641 -0.0859,1.96484 -0.35156,2.69922 -0.26563,0.69922 -0.41406,1.0664 -0.44922,1.10156 h -0.35156 c -0.36328,-2 -0.86328,-3.44922 -1.5,-4.35156 -0.59766,-0.9336 -1.16407,-1.53125 -1.69922,-1.80078 -0.53125,-0.23047 -0.80078,-0.33203 -0.80078,-0.29688 0.60156,1.13281 0.95312,2.26563 1.05078,3.39844 0.10156,1.13281 0.0859,2.14844 -0.0508,3.05078 h -2.44922 c -0.36719,-1.96875 -0.94922,-3.40234 -1.75,-4.30078 -0.83203,-0.89844 -1.59766,-1.46484 -2.30078,-1.69922 -0.73047,-0.23437 -1.11328,-0.33594 -1.14844,-0.30078 0.93359,1.16797 1.39844,2.31641 1.39844,3.44922 0,1.13281 -0.14844,2.08594 -0.44922,2.85156 h -8 L 244.55078,131.25 c 0.96484,0.53516 1.98438,0.73437 3.05078,0.60156 1.06641,-0.10156 2,-0.30078 2.79688,-0.60156 0.76953,-0.33203 1.16797,-0.51563 1.20312,-0.55078 -1.5,-0.26563 -2.66797,-0.73438 -3.5,-1.39844 -0.83594,-0.69922 -1.43359,-1.43359 -1.80078,-2.19922 -0.33594,-0.80078 -0.55078,-1.51953 -0.65234,-2.15234 L 251.30078,93.5 239.85156,120 c -1.96875,0.0352 -3.85156,0.11719 -5.65234,0.25 -2.13281,0.10156 -4.16406,0.26563 -6.09766,0.5 -6.40234,0.73438 -11.83594,1.85156 -16.30078,3.35156 -1.63281,0.56641 -3.15234,1.14844 -4.55078,1.75 -4.60156,2.03125 -8.16797,4.26563 -10.69922,6.69922 -2.56641,2.43359 -4.38281,4.75 -5.44922,6.94922 -1.0664,2.23437 -1.70312,4.06641 -1.90234,5.5 -0.23438,1.43359 -0.31641,2.16797 -0.25,2.19922 0.73437,1.43359 1.18359,2.76562 1.35156,4 0.16406,1.26562 0.18359,2.3164 0.0508,3.15234 -0.10156,0.86328 -0.20312,1.41406 -0.30078,1.64844 -0.36719,-2.03516 -0.86719,-3.51563 -1.5,-4.44922 -0.63281,-0.93359 -1.19922,-1.53516 -1.69922,-1.80078 -0.53515,-0.23438 -0.8164,-0.33203 -0.85156,-0.30078 0.63281,1.16797 1,2.33594 1.10156,3.5 0.0977,1.16797 0.0664,2.21875 -0.10156,3.15234 h -2.39844 c -0.33594,-2.03515 -0.91797,-3.51953 -1.75,-4.45312 -0.80078,-0.9336 -1.5664,-1.51563 -2.30078,-1.75 -0.73437,-0.23047 -1.13281,-0.33203 -1.19922,-0.29688 0.96485,1.23047 1.44922,2.4336 1.44922,3.59766 -0.0352,1.19922 -0.21875,2.16797 -0.55078,2.90234 h -11.39844 c -0.0352,0.0664 0.13281,-0.61719 0.5,-2.05078 0.36328,-1.46875 1.13281,-4.01562 2.29688,-7.65234 1.20312,-3.63282 3,-8.71485 5.40234,-15.25 2.39844,-6.53125 5.63281,-14.86328 9.69922,-25 1.19922,-2.9336 2.46484,-6.03125 3.80078,-9.296878 0.80078,-1.933593 1.69922,-3.785156 2.69922,-5.550781 -1.96484,1.964844 -3.5,3.515625 -4.60156,4.648438 -1.09766,1.132812 -1.66407,1.699219 -1.69922,1.699219 -2.16406,1 -4.26563,2.152343 -6.30078,3.453122 -2.06641,1.26563 -3.9336,2.48047 -5.59766,3.64844 -1.66797,1.19922 -2.98437,2.18359 -3.94922,2.94922 -1,0.80078 -1.51953,1.19922 -1.55078,1.19922 1.96484,-2.76563 4.01563,-5.41406 6.14844,-7.94922 -0.73438,0.80078 -1.09766,1.21875 -1.09766,1.25 4.63281,-5.800782 9.53125,-10.933595 14.69922,-15.398439 5.16406,-4.5 10.48438,-8.402343 15.94922,-11.699219 C 211.18359,71.5 217.14844,68.464844 223.14844,66 c 6.36718,-2.699219 12.88672,-4.816406 19.55078,-6.351562 7.43359,-1.796876 14.40234,-3.046876 20.90234,-3.75 6.46485,-0.699219 12.1836,-1.046876 17.14844,-1.046876 4.96484,0 8.85156,0.113282 11.64844,0.347657 2.80078,0.234375 4.23437,0.367187 4.30078,0.402343 4.43359,0.5 8,2.015626 10.69922,4.546876 C 310.10156,62.714844 312.11719,66 313.44922,70 c 1.36719,4 2.23437,8.417969 2.60156,13.25 0,0 0,0 0,0 l 0.25,3.449219 c 0,0.03516 -0.0156,0.06641 -0.0508,0.101562 0.13281,4 0.082,8.015625 -0.14844,12.050781 -0.23437,4.066408 -0.5664,8.015628 -1,11.847658 -2.36719,-1.86719 -4.0664,-4.19922 -5.10156,-7 l -0.80078,-2.34766 c -2.53125,-0.16797 -4.64844,0.0977 -6.34766,0.79688 -1.70312,0.70312 -3.05078,1.55078 -4.05078,2.55078 -1,1.03516 -1.71875,1.94922 -2.15234,2.75 -0.4336,0.80078 -0.64844,1.21875 -0.64844,1.25 l -1.14844,-1 -2.75,-2.39844 m 46.75,14.5 c -6.13672,1.03125 -11.41797,1.25 -15.85156,0.64844 -4.43359,-0.59766 -8.13281,-1.66406 -11.10156,-3.19922 -3,-1.53516 -5.36328,-3.16797 -7.09766,-4.89844 -1.73437,-1.73437 -2.96875,-3.23437 -3.69922,-4.5 -0.76953,-1.23437 -1.13672,-1.88672 -1.10156,-1.95312 0.76562,-1.13281 1.68359,-1.89844 2.75,-2.29688 1.06641,-0.36718 2.01562,-0.55078 2.85156,-0.55078 0.79688,-0.0352 1.21485,-0.0352 1.25,0 1.26563,3.46485 3.14844,6.28125 5.64844,8.44922 2.5,2.13281 5.25,3.78516 8.25,4.94922 2.96484,1.16797 5.83203,1.98437 8.60156,2.44922 2.73047,0.5 4.98047,0.78515 6.75,0.85156 1.76563,0.0664 2.6836,0.082 2.75,0.0508 m -20.95312,4.75 c 3,0.46485 6.38672,0.55078 10.15234,0.25 3.56641,-0.33594 6.58203,-0.88281 9.05078,-1.65234 2.46485,-0.79688 4.4336,-1.63281 5.89844,-2.5 1.5,-0.86328 2.58203,-1.61328 3.25,-2.25 0.66797,-0.59766 0.98437,-0.91406 0.94922,-0.94922 -1.5,0.26562 -3.34766,0.41797 -5.55078,0.44922 -2.19922,0.0664 -4.58203,-0.0469 -7.14844,-0.34766 -2.60156,-0.26562 -5.19922,-0.73437 -7.80078,-1.40234 -2.63281,-0.66406 -5.09766,-1.58203 -7.39844,-2.75 0.53125,-4.63281 0.93359,-9.39844 1.19922,-14.296878 0.26562,-4.902343 0.23437,-9.734374 -0.10156,-14.5 -0.33203,-4.769531 -1.11328,-9.234374 -2.34766,-13.402343 C 316.78516,67 314.93359,63.316406 312.5,60.148438 308.33203,54.949219 302.80078,51.984375 295.89844,51.25 h -0.0977 c -0.13281,-0.03516 -1.30078,-0.101562 -3.5,-0.199219 -2.19922,-0.132812 -5.19922,-0.199219 -9,-0.199219 -4.5,-0.03516 -9.58594,0.148438 -15.25,0.546876 -5.66797,0.367187 -11.63281,1.066406 -17.90234,2.101562 -6.29688,1.035156 -12.61328,2.515625 -18.94922,4.449219 C 219.73437,61.484375 210.13281,66.25 202.39844,72.25 c -2.69922,1.933594 -5.86328,4.417969 -9.5,7.449219 -3.59766,3.066406 -7.39844,6.683593 -11.39844,10.851562 -4,4.132813 -7.91797,8.832031 -11.75,14.097659 -3.86719,5.23437 -7.38281,11 -10.55078,17.30078 0.0352,-0.0312 0.8164,-0.66406 2.35156,-1.89844 1.53125,-1.26562 3.73438,-2.83594 6.59766,-4.69922 2.83593,-1.86718 6.23437,-3.76953 10.20312,-5.70312 -3.73437,9.33594 -6.80078,17.26953 -9.20312,23.80078 -2.39844,6.53515 -4.28125,11.85156 -5.64844,15.94922 -1.33203,4.10156 -2.28516,7.15234 -2.85156,9.15234 -0.56641,1.96484 -0.84766,3.05078 -0.84766,3.25 h 32.34766 l 1.60156,-3.15234 c 0.16797,-0.29688 0.38281,-0.9336 0.64844,-1.89844 0.26953,-0.96484 0.36718,-2.23438 0.30078,-3.80078 -0.0312,-1.53125 -0.44922,-3.30078 -1.25,-5.30078 0.16797,-0.89844 0.65234,-2.13282 1.44922,-3.69922 0.83593,-1.59766 2.18359,-3.33203 4.05078,-5.19922 1.86719,-1.86719 4.48437,-3.66797 7.85156,-5.39844 -0.33594,2.16406 -0.94922,4.69922 -1.85156,7.59766 -0.86719,2.93359 -2.08203,6.26562 -3.64844,10 l -1.40234,3.30078 h 22.30078 l 0.55078,-1.64844 c 0.13281,-0.36719 0.28516,-1.03515 0.44922,-2 0.16797,-0.96875 0.18359,-2.01953 0.0508,-3.15234 -0.13281,-1.13281 -0.60156,-2.13281 -1.39844,-3 0.0312,-0.76563 0.34766,-1.98438 0.94922,-3.64844 0.59766,-1.66797 1.44922,-3.65234 2.55078,-5.94922 1.09766,-2.30078 2.4336,-4.76953 4,-7.40234 2.9336,-0.33203 6.13281,-0.53125 9.59766,-0.59766 L 231.85156,161.25 h 27.69922 l 1.69922,-2.05078 c 1.19922,-1.46485 1.89844,-3.28125 2.10156,-5.44922 0.19922,-2.13281 -0.43359,-4.33203 -1.90234,-6.60156 -0.0664,-1.09766 0.10156,-2.81641 0.5,-5.14844 0.43359,-2.33203 1.10156,-5 2,-8 0.93359,-3 2.15234,-6.03516 3.65234,-9.10156 1.4336,0.20312 2.58203,0.43359 3.44922,0.70312 0.86719,0.29688 1.36719,0.61328 1.5,0.94922 0.13281,0.89844 -0.11719,2.18359 -0.75,3.84766 -0.66797,1.70312 -1.53516,3.48437 -2.60156,5.35156 -1.06641,1.89844 -2.11719,3.60156 -3.14844,5.10156 l -1.05078,1.5 17.05078,10.29688 0.75,-1.84766 c 0.0977,-0.19922 0.30078,-0.76562 0.59766,-1.69922 0.26953,-0.90234 0.5,-1.93359 0.70312,-3.10156 0.16406,-1.19922 0.14844,-2.33203 -0.0508,-3.39844 0.13281,-0.73437 0.63281,-2.46875 1.5,-5.20312 0.83203,-2.69922 2.01563,-6.11328 3.55078,-10.25 0.63281,-1.79688 0.73047,-3.46485 0.29688,-5 -0.46485,-1.5 -1.16407,-2.79688 -2.09766,-3.89844 -0.96875,-1.06641 -1.88281,-1.86719 -2.75,-2.39844 l -5.65234,-4.55078 c 1.26953,-0.66797 2.55078,-1.08594 3.85156,-1.25 h 0.30078 l 0.34766,-0.10156 c 0.20312,-0.0664 0.61718,-0.0977 1.25,-0.0977 2.20312,0.0312 4,0.71485 5.40234,2.04688 1.39844,1.33594 2.46484,3.01953 3.19922,5.05078 0.76562,2.06641 1.31641,4.23437 1.64844,6.5 0.30078,2.23437 0.46875,4.30078 0.5,6.19922 0.20312,5.16797 0.95312,9.46875 2.25,12.90234 1.26953,3.43359 2.86718,6.16406 4.80078,8.19922 1.90234,2.03516 3.91797,3.55078 6.05078,4.55078 2.10156,1 4.05078,1.64844 5.85156,1.94922 1.83203,0.33203 3.29688,0.48437 4.39844,0.44922 1.36719,-0.0312 2.46484,-0.11719 3.30078,-0.25 0.86719,-0.0977 1.39844,-0.1836 1.59766,-0.25 l 3.30078,-0.80078 0.10156,-0.25 c 0.36719,-3.23047 1.03125,-6.16407 2,-8.79688 1,-2.63672 2.13281,-5 3.39844,-7.10156 1.26562,-2.06641 2.48437,-3.86719 3.65234,-5.39844 -0.86719,0.63281 -2.05078,1.25 -3.55078,1.84766 -1.5,0.60156 -3.13281,1.08594 -4.90234,1.44922 -1.73047,0.36718 -3.41407,0.46875 -5.04688,0.30078 -1.63672,-0.16406 -3.01953,-0.69922 -4.15234,-1.59766 -0.19922,-0.13672 -0.41406,-0.51953 -0.64844,-1.15234 -0.26562,-0.63281 -0.44922,-1.61719 -0.55078,-2.94922 -0.10156,-1.33203 -0.0156,-3.11719 0.25,-5.35156 0.13281,-0.89844 0.26562,-1.84766 0.39844,-2.84766"
       id="path3981"
       inkscape:connector-curvature="0" />
    <path
       style="fill:#000000;fill-opacity:1;fill-rule:evenodd;stroke:none"
       d="m 309.14844,90.449219 c -1.46485,0.335937 -2.75,0.351562 -3.84766,0.05078 -1.10156,-0.332031 -2.01562,-0.785156 -2.75,-1.351562 C 301.81641,88.550781 301.26562,88 300.89844,87.5 300.5,87.035156 300.30078,86.785156 300.30078,86.75 c 0.73438,-0.398438 1.44922,-0.667969 2.14844,-0.800781 0.66797,-0.132813 1.28515,-0.183594 1.85156,-0.148438 1.66406,2.300781 3.28125,3.847657 4.84766,4.648438 m -6.94922,-7.300781 c -0.83203,0.101562 -1.76563,0.367187 -2.80078,0.800781 -1,0.433593 -2.04688,1.132812 -3.14844,2.101562 0,0.03125 0.26562,0.484375 0.80078,1.347657 0.53125,0.867187 1.31641,1.835937 2.34766,2.902343 1.03515,1.097657 2.28515,1.984375 3.75,2.648438 1.46875,0.699219 3.13672,0.917969 5,0.652343 1.83593,-0.300781 3.85156,-1.367187 6.05078,-3.203124 l -0.0508,-0.04688 c 0.86718,-0.601562 1.36718,-1.601562 1.5,-3 0,0 -0.0156,0.01563 -0.0469,0.04688 -0.43359,0.300781 -1.08594,0.46875 -1.95312,0.5 -0.86328,0.03516 -1.94922,-0.347657 -3.25,-1.148438 C 309.13281,85.949219 307.66797,84.433594 306,82.199219 304.76562,80.5 303.60156,79.433594 302.5,79 c -1.06641,-0.464844 -2.05078,-0.535156 -2.94922,-0.199219 -0.83594,0.300781 -1.55078,0.765625 -2.15234,1.398438 -0.59766,0.601562 -1.04688,1.167969 -1.34766,1.699219 -0.33594,0.535156 -0.5,0.816406 -0.5,0.851562 0.0312,-0.06641 0.36719,-0.265625 1,-0.601562 C 297.18359,81.851562 298,81.699219 299,81.699219 c 1,0 2.06641,0.484375 3.19922,1.449219"
       id="path3983"
       inkscape:connector-curvature="0" />
    <path
       style="fill:#000000;fill-opacity:1;fill-rule:evenodd;stroke:none"
       d="M 270.60156,92.75 C 269.16797,91.582031 267.96484,90.316406 267,88.949219 c -1.26563,-1.800781 -2.21484,-3.648438 -2.85156,-5.550781 -0.59766,-1.898438 -1,-3.648438 -1.19922,-5.25 -0.16406,-1.632813 -0.23438,-2.933594 -0.19922,-3.898438 0,-1 0.0156,-1.515625 0.0508,-1.550781 2.69922,-3.867188 5.44922,-6.914063 8.25,-9.148438 2.76563,-2.234375 5.23438,-3.835937 7.39844,-4.800781 1.33594,-0.632812 2.43359,-1.101562 3.30078,-1.398438 0.39844,-0.136718 0.73437,-0.25 1,-0.351562 0.10156,0 0.16797,-0.01563 0.19922,-0.05078 0.40234,-0.09766 0.60156,-0.148438 0.60156,-0.148438 -1.96875,0.265625 -4.10156,0.734375 -6.40234,1.398438 -2.29688,0.632812 -4.64844,1.632812 -7.04688,3 -2.40234,1.335937 -4.75,3.21875 -7.05078,5.652343 -1.46875,1.53125 -2.85156,3.332032 -4.15234,5.398438 -0.0312,0.03516 -0.0977,0.785156 -0.19922,2.25 -0.0977,1.464844 -0.0977,3.398438 0,5.800781 0.10156,2.367188 0.46875,4.964844 1.10156,7.800781 0.63281,2.832032 1.66406,5.648438 3.09766,8.449219 1.46875,2.765625 3.48437,5.281248 6.05078,7.550778 0.0351,0 0.65234,-0.3164 1.85156,-0.95312 1.23438,-0.59766 2.83203,-1.51563 4.80078,-2.75 1.9336,-1.23047 4.03125,-2.750001 6.29688,-4.546877 2.26953,-1.835937 4.45312,-3.953124 6.55078,-6.351562 2.10156,-2.398438 3.91797,-5.101562 5.44922,-8.101562 1.5,-2.964844 2.5,-6.214844 3,-9.75 -2.59766,4.5 -5.39844,8.152343 -8.39844,10.953124 -3,2.796876 -5.85156,4.933594 -8.55078,6.398438 -2.73438,1.464844 -4.94922,2.464844 -6.64844,3 -1.73437,0.535156 -2.63281,0.785156 -2.69922,0.75"
       id="path3985"
       inkscape:connector-curvature="0" />
  </g>
  <flowRoot
     xml:space="preserve"
     id="flowRoot40"
     style="font-style:normal;font-variant:normal;font-weight:normal;font-stretch:normal;font-size:74.66666412px;line-height:1.25;font-family:'Fjalla One';-inkscape-font-specification:'Fjalla One, Normal';font-variant-ligatures:normal;font-variant-caps:normal;font-variant-numeric:normal;font-feature-settings:normal;text-align:start;letter-spacing:0px;word-spacing:0px;writing-mode:lr-tb;text-anchor:start;fill:#000000;fill-opacity:1;stroke:none"
     transform="matrix(0.74980696,-0.01701568,0.01701568,0.74980696,77.974629,-9.4487364)"
     inkscape:transform-center-x="79.874411"
     inkscape:transform-center-y="-2.0345209"><flowRegion
       id="flowRegion42"
       style="font-style:normal;font-variant:normal;font-weight:normal;font-stretch:normal;font-size:74.66666412px;font-family:'Fjalla One';-inkscape-font-specification:'Fjalla One, Normal';font-variant-ligatures:normal;font-variant-caps:normal;font-variant-numeric:normal;font-feature-settings:normal;text-align:start;writing-mode:lr-tb;text-anchor:start"><rect
         id="rect44"
         width="339.74359"
         height="84.615387"
         x="158.97437"
         y="-83.846153"
         style="font-style:normal;font-variant:normal;font-weight:normal;font-stretch:normal;font-size:74.66666412px;font-family:'Fjalla One';-inkscape-font-specification:'Fjalla One, Normal';font-variant-ligatures:normal;font-variant-caps:normal;font-variant-numeric:normal;font-feature-settings:normal;text-align:start;writing-mode:lr-tb;text-anchor:start" /></flowRegion><flowPara
       id="flowPara46">AKT</flowPara></flowRoot>  <flowRoot
     xml:space="preserve"
     id="flowRoot48"
     style="font-style:normal;font-variant:normal;font-weight:normal;font-stretch:normal;font-size:74.66666412px;line-height:1.25;font-family:'Fjalla One';-inkscape-font-specification:'Fjalla One, Normal';font-variant-ligatures:normal;font-variant-caps:normal;font-variant-numeric:normal;font-feature-settings:normal;text-align:start;letter-spacing:0px;word-spacing:0px;writing-mode:lr-tb;text-anchor:start;fill:#000000;fill-opacity:1;stroke:none"
     transform="matrix(0.75000001,0,0,0.75000001,58.653847,19.230769)"><flowRegion
       id="flowRegion50"
       style="font-style:normal;font-variant:normal;font-weight:normal;font-stretch:normal;font-size:74.66666412px;font-family:'Fjalla One';-inkscape-font-specification:'Fjalla One, Normal';font-variant-ligatures:normal;font-variant-caps:normal;font-variant-numeric:normal;font-feature-settings:normal;text-align:start;writing-mode:lr-tb;text-anchor:start"><rect
         id="rect52"
         width="352.56412"
         height="85.897438"
         x="138.46153"
         y="393.07693"
         style="font-style:normal;font-variant:normal;font-weight:normal;font-stretch:normal;font-size:74.66666412px;font-family:'Fjalla One';-inkscape-font-specification:'Fjalla One, Normal';font-variant-ligatures:normal;font-variant-caps:normal;font-variant-numeric:normal;font-feature-settings:normal;text-align:start;writing-mode:lr-tb;text-anchor:start" /></flowRegion><flowPara
       id="flowPara54">Mamut</flowPara></flowRoot></svg>
